<svg id="Layer_1" xmlns="http://www.w3.org/2000/svg" viewBox="0 0 2610.3 621.1">
  <style>
    .st0{fill-rule:evenodd;clip-rule:evenodd;fill:#FFFFFF;} .st1{fill:#FFFFFF;}
  </style>
  <path class="st0" d="M283.9 175.8c-10.2 21.5-6.2 39.2 9.1 39.5 15.2.3 35.9-17 46.1-38.5 10.2-21.5 6.2-39.2-9.1-39.5-15.2-.2-35.8 17-46.1 38.5zm124.2-77.7c.1 0 .2.2.2.3v.1c-9.1 25.8-24.2 55.2-39.2 77.4-31.5 46.8-76.8 76.4-101.1 66-24.3-10.4-18.4-56.8 13.1-103.7 7.1-10.5 14.9-20.1 23-28.7.1-.1.1-.2.1-.2 0-.2-.2-.4-.4-.4h-.1c-9.9 1.4-20 3.3-30.1 5.9-.1 0-.1.1-.2.1-106.5 130.8-151.8 300.5-145.6 451.9 0 .2-.1.3-.4.3h-.1c-62.8-25.3-108.7-86-113.5-162.8l-.1-.9c-7.9-136.7 101-276.7 243.4-312.8 55.3-13.9 107.4-10.2 151 7.5z"/>
  <path class="st0" d="M367.8 466.8c-10.4 7.2-21.2 13.8-32.3 19.8h-.2c-.2 0-.4-.2-.4-.4-2.1-32.8-9.2-64.6-21.4-91.1-32.6-70.6-89.6-76.1-127.2-12.1-23 39.1-33.5 95.2-30.7 149 0 .2.1.3.2.3 39.9 12.5 85.9 13.9 135 1.5 142.2-36.2 250.9-176.1 243-312.7-7-120-101.6-197.5-220.9-190.3-.1 0-.2 0-.2.1-11.6 11.7-22.5 23.6-32.6 35.5 0 .1-.1.1-.1.2 0 .2.2.4.4.4h.1c69.9-8.9 125.9 5.4 162.5 34.5.1 0 .1.2.1.3v.2c-126 177.6-110.4 278.8-75.2 364.2v.1c.1.3 0 .4-.1.5zm1174.9-203.2c29.7 0 51.7 6.5 62.3 12.5.1.1.2.2.2.4l-10.3 53.8c0 .1-.1.2-.2.3-.1.1-.2 0-.3 0-12-6.6-32.8-13.5-55.2-13.5-18.7 0-30.9 7.9-30.9 21 0 9.4 9.3 17.8 29.1 27.5 25.7 12.9 54.9 31.9 54.9 66.4 0 22.5-7.5 41.3-22.3 56-19.7 19.5-51.6 30.1-89.9 29.9-29.5-.5-59.3-8.1-74.2-19-.1-.1-.2-.2-.1-.3l10.3-54.2c0-.1.1-.2.2-.3h.3c16 10 47.4 20.8 70.5 20.8 17.9 0 30-8.3 30-21.5 0-12-8.5-20.4-30.1-31-34.3-17.1-51.4-38.8-51.4-64.4-.1-50.4 42.7-84.4 107.1-84.4z"/>
  <path class="st1" d="M1237.6 183.1h71.1c.1 0 .2.1.3.1.1.1.1.2.1.3L1272 378.9c0 .1 0 .2.1.2s.2 0 .2-.1l95.6-110.3c.1-.1.2-.1.3-.1h78c.1 0 .3.1.3.2v.2c0 .1 0 .2-.1.2l-99 111.5 60.4 131.1v.4c-.1.1-.2.2-.3.2h-77c-.1 0-.3-.1-.3-.2l-58.5-129.8c0-.1-.1-.1-.2-.1s-.1.1-.2.1l-24.6 129.7c0 .2-.2.3-.4.3h-71.1c-.1 0-.2 0-.3-.1-.1-.1-.1-.2-.1-.3l62.5-328.5c-.1-.3.1-.4.3-.4z"/>
  <path class="st0" d="M1141.3 264.1c18.3 0 36.9 3.2 49.8 8.5.2.1.3.2.2.4l-11.1 58c0 .1-.1.2-.2.3h-.3c-11.2-6.2-24.1-9.3-39.5-9.3-51.5 0-82.1 44.9-82.1 88.1 0 36.7 24.5 49.8 47.3 49.8 20.4 0 37.8-4.4 59.8-15.3.1-.1.3-.1.4 0 .1.1.2.2.1.4l-11.3 59.6c0 .1-.1.2-.2.2-16.7 8.1-42.6 13-69.2 13-62.5 0-102.7-39.1-102.7-99.7.1-87.8 68.4-154 159-154z"/>
  <path class="st1" d="M753.7 263.1c4.3 0 9.5.4 13.4 1.2.1 0 .2.1.2.1.1.1.1.2.1.3l-13.9 70.1c0 .1-.1.2-.2.2-.1.1-.2.1-.3.1-2.5-.5-6.5-1.1-11.3-1.1-49.1 0-68.3 48-75.7 87.6l-17.4 93.3c0 .2-.2.3-.4.3h-71.6c-.1 0-.2 0-.3-.1-.1-.1-.1-.2-.1-.3L622.9 269c0-.2.2-.3.4-.3h63c.1 0 .2.1.3.1.1 0 .1.2.1.2l-3.2 16.6c-3 15.8-7.8 25.1-10.9 29.5l-.5.8c-1.1 2.3.6 4.8 2.5 5.6 1.9.9 4.9.6 6-1.7l.3-.9c1.4-5.2 4.3-16.5 14-27.4 16.7-18.3 37-28.4 58.8-28.4z"/>
  <path class="st0" d="M2392 365.7c.3 0 .7 0 1-.1 28.5-1.2 45.6-5.6 54-13.9 4-4 5.9-8.8 5.9-14.7 0-12.6-10.4-20.5-26-20.5-23.4 0-40.5 14.4-49.9 31.6-.3.5-.5 1-.8 1.5-6.8 12.8-9 14.2-15.1 18l-.8.5c-2 1.6-1.3 4.6 0 6.2 1.3 1.6 4 2.7 6 1l.6-.7c5.2-5.9 6.2-8.1 25.1-8.9zm43.9-102.1c50.9 0 84.8 29.6 84.8 73.4 0 20.3-6.6 36.9-19.6 49.6-21.9 21.3-61.4 32-120.7 32.4-14.2 0-17.5-7.2-20-12l-.5-.8c-1.6-2-4.6-1.6-6.3-.3-1.6 1.3-2.7 4-1.1 6l.6.7c6.6 6 8.8 7.3 11.6 16.9 1.2 4.8 3.2 9.7 5.8 13.5 9.4 11.8 25.9 18.3 46.4 18.3 30 0 56-7.3 84.3-23.6h.4c.1.1.2.2.1.4l-11.4 59.9c0 .1-.1.2-.2.3-34.4 17.5-74.8 19.4-90.6 19.4-67.3 0-105.7-37.4-105.7-102.7 0-37.7 13.8-75.4 37.9-103.5 26.6-30.9 63.5-47.9 104.2-47.9z"/>
  <path class="st1" d="M1711.8 463.4c38 0 65.9-53.9 65.9-101.5 0-11.5-2.7-39.4-29.2-39.4-26.9 0-49.7 30.7-58.5 77.2-3 15.9-11.5 63.7 21.8 63.7zm-5.1-195.9l-2.1 11.2c-3.3 17.7-8.6 24.4-12 28.6l-.5.8c-1.3 2.3.1 4.7 1.9 5.7 1.8 1 5 1.1 6.3-1.2l.4-.9c1.7-5.1 4.6-15.5 15.9-26.2 16.5-14.2 36.6-21.9 57.5-21.9 47.9 0 78.9 36.3 78.9 92.8 0 59.3-28.5 120.1-79.8 147.4-39.8 21.2-76.2 16.4-94 2.5-4.3-3.3-5.3-12.1-5.8-15.6l-.2-.9c-.8-2.5-3.7-3.4-5.9-2.6-2 .7-3.7 3.1-2.9 5.5l.4.8c3.3 5.8 5.5 10 4.8 15.3l-15.5 81.8c0 .2-.2.3-.4.3H1582c-.1 0-.2 0-.3-.1-.1-.1-.1-.2-.1-.3l61.5-323.1c0-.2.2-.3.4-.3h62.9c.1 0 .2 0 .3.1 0 .1.1.2 0 .3z"/>
  <path class="st0" d="M2257.3 264.1c18.2 0 36.9 3.2 49.8 8.5.2.1.3.2.2.4l-11 58c0 .1-.1.2-.2.3h-.3c-11.2-6.2-24.1-9.3-39.5-9.3-51.5 0-82.1 44.9-82.1 88.1 0 36.7 24.5 49.8 47.3 49.8 20.4 0 37.8-4.4 59.8-15.3.1-.1.3-.1.4 0 .1.1.2.2.1.4l-11.3 59.6c0 .1-.1.2-.2.2-16.7 8.1-42.6 13-69.2 13-62.5 0-102.7-39.1-102.7-99.7 0-87.8 68.3-154 158.9-154z"/>
  <path class="st1" d="M1964.7 333c-19.4 19.4-34 55.9-34 85 0 25.5 9.5 41.4 25.9 41.4 26.3 0 49-27.5 56.8-67.8 1.7-9 3.5-18.2 4.8-26.3 1.3-8.1 2.1-15.3 1.8-20.3-.8-17.2-9.8-26.5-25.8-26.5-9.9 0-20.1 5.1-29.5 14.5zm26.7 179.4l2.2-10.9c2-9.8 9.9-23.3 12.9-27.7l.5-.8c1-2.4-.5-5.1-2.4-5.9-2.3-1-5.1-.2-6.2 2.1l-.3.9c-1.3 5.2-4.1 17-15.2 27.5-14.2 13-33.9 20.7-55.4 20.7-48.1 0-69.8-42.6-69.8-85.3 0-48.5 19-96.5 50.9-128.4 26.7-26.7 61.2-40.9 99.8-40.9 29.3.1 51 8.6 64.6 25.1 20.1 24.4 18.5 61 13.5 87.6l-26 136.2c0 .2-.2.3-.3.3h-68.3c-.1 0-.2 0-.3-.1-.2-.2-.2-.3-.2-.4zM848.7 333c-19.4 19.4-34 55.9-34 85 0 25.5 9.5 41.4 25.9 41.4 26.3 0 49-27.5 56.8-67.8 1.8-9 3.5-18.2 4.8-26.3 1.3-8.1 2.1-15.3 1.8-20.3-.8-17.2-9.8-26.5-25.9-26.5-9.8 0-20 5.1-29.4 14.5zm26.7 179.4l2.2-10.9c2-9.8 9.9-23.3 12.9-27.7l.5-.8c1-2.4-.5-5.1-2.4-5.9-2.3-1-5.1-.2-6.2 2.1l-.3.9c-1.3 5.2-4.1 17-15.3 27.5-14.2 13-33.9 20.7-55.4 20.7-48.1 0-69.8-42.6-69.8-85.3 0-48.5 19-96.5 50.9-128.4 26.7-26.7 61.2-40.9 99.8-40.9 29.3.1 51 8.6 64.6 25.1 20.1 24.4 18.5 61 13.5 87.6l-26 136.2c0 .2-.2.3-.4.3h-68.3c-.1 0-.2 0-.3-.1v-.4zm1645.7-25c-1.3 14.9 9.5 26.8 24.4 26.8 15.2 0 28.7-12.4 30.1-27.6 1.3-14.9-9.5-26.8-24.4-26.8-15.2 0-28.8 12.4-30.1 27.6zm-4.3-.4c1.6-17.4 16.9-31.5 34.3-31.5s30.2 14.1 28.7 31.5c-1.6 17.4-16.9 31.5-34.3 31.5s-30.3-14.1-28.7-31.5zm24.6-18.6c0-.1.1-.1.1-.1h8c2 0 3.4 0 4.4.1 1.4.1 2.4.3 3.5.7 4 1.3 6.3 4.5 6.3 8.6 0 .7-.1 1.4-.2 2.2-.9 4.9-4.1 9-9.9 10.6l5.1 14.9v.1l-.1.1h-5.1c-.1 0-.1 0-.1-.1l-4.8-14.3-3.2.1h-3.6l-2.6 14.1c0 .1-.1.1-.2.1h-4.3s-.1 0-.1-.1v-.1l2.7-14.3v-.2l2.1-11.2 2-11.2zm7.2 4.4h-3.5l-1.3 7-1.3 6.9h3.8c1.7 0 2.9-.1 3.8-.1 1-.1 1.8-.2 2.6-.5 3.3-.9 5.6-3.3 6.2-6.4.6-3-.8-5.4-3.7-6.3-.7-.3-1.4-.4-2.4-.5-.9-.1-2.1-.1-3.8-.1h-.4z"/>
</svg>
