<svg height="60" viewBox="0 0 120 60" width="120" xmlns="http://www.w3.org/2000/svg"><g transform="matrix(.79637272 0 0 .79637272 3.66822 3.252115)"><path d="m16 26.1c-.6 1.2-.3 2.2.5 2.2s2-.9 2.6-2.1.3-2.2-.5-2.2c-.8-.1-2 .9-2.6 2.1zm6.9-4.3c.1 0 .1 0 0 0-.5 1.5-1.3 3.1-2.2 4.3-1.8 2.6-4.3 4.2-5.6 3.7-1.4-.6-1-3.2.7-5.8.4-.6.8-1.1 1.3-1.6-.5.1-1.1.2-1.7.3-5.9 7.3-8.4 16.7-8 25.1-3.5-1.4-6-4.8-6.3-9.1-.5-7.6 5.5-15.4 13.5-17.4 3-.7 5.9-.5 8.3.5z" fill="#c40022"/><path d="m20.7 42.3c-.6.4-1.2.8-1.8 1.1-.1-1.8-.5-3.6-1.2-5.1-1.8-3.9-5-4.2-7.1-.7-1.3 2.2-1.9 5.3-1.7 8.3 2.2.7 4.8.8 7.5.1 7.9-2 14-9.8 13.5-17.4-.3-6.7-5.6-11-12.2-10.6-.6.7-1.2 1.3-1.8 2 3.9-.5 7 .3 9 1.9-7 10-6.1 15.6-4.2 20.4 0-.1 0-.1 0 0z"/><path d="m86 31c1.7 0 2.9.4 3.5.7l-.6 3c-.7-.4-1.8-.8-3.1-.8-1 0-1.7.4-1.7 1.2 0 .5.5 1 1.6 1.5 1.4.7 3.1 1.8 3.1 3.7 0 1.3-.4 2.3-1.2 3.1-1.1 1.1-2.9 1.7-5 1.7-1.6 0-3.3-.5-4.1-1.1l.6-3c.9.6 2.6 1.2 3.9 1.2 1 0 1.7-.5 1.7-1.2s-.5-1.1-1.7-1.7c-1.9-1-2.9-2.2-2.9-3.6 0-2.9 2.4-4.7 5.9-4.7z"/><path d="m63.7 31c1 0 2 .2 2.8.5l-.6 3.2c-.6-.3-1.3-.5-2.2-.5-2.9 0-4.6 2.5-4.6 4.9 0 2 1.4 2.8 2.6 2.8 1.1 0 2.1-.2 3.3-.9l-.6 3.3c-.9.4-2.4.7-3.8.7-3.5 0-5.7-2.2-5.7-5.5 0-4.8 3.8-8.5 8.8-8.5z"/><path d="m47.5 34.8c-1.1 1.1-1.9 3.1-1.9 4.7 0 1.4.5 2.3 1.4 2.3 1.5 0 2.7-1.5 3.2-3.8l.3-1.5c.1-.5.1-.9.1-1.1 0-1-.5-1.5-1.4-1.5-.7.1-1.2.4-1.7.9zm1.4 10 .1-.6c.1-.5.5-1.3.7-1.5.1-.1 0-.3-.1-.3-.1-.1-.3 0-.3.1v.1c-.1.3-.2 1-.8 1.5-.8.7-1.9 1.2-3.1 1.2-2.7 0-3.9-2.4-3.9-4.7 0-2.7 1.1-5.4 2.8-7.1 1.5-1.5 3.4-2.3 5.5-2.3 1.6 0 2.8.5 3.6 1.4 1.1 1.4 1 3.4.7 4.9l-1.4 7.6z"/><path d="m95.4 42.1c2.1 0 3.7-3 3.7-5.6 0-.6-.1-2.2-1.6-2.2s-2.8 1.7-3.2 4.3c-.3.8-.7 3.5 1.1 3.5zm3.5-11.1c2.7 0 4.4 2 4.4 5.2 0 3.3-1.6 6.7-4.4 8.2-2.2 1.2-4.2.9-5.2.1-.2-.2-.3-.7-.3-.9 0-.1-.2-.2-.3-.1-.1 0-.2.2-.2.3.2.3.3.6.3.9l-.9 4.5h-4l3.4-18h3.5l-.2.6c-.2 1-.5 1.4-.7 1.6-.1.1 0 .3.1.3.1.1.3.1.3-.1.1-.3.3-1 .9-1.5 1-.7 2.1-1.1 3.3-1.1z"/><path d="m69.1 26.5h4l-2.1 10.8 5.3-6.1h4.3l-5.5 6.2 3.4 7.3h-4.3l-3.2-7.1-1.4 7.2h-4l3.5-18.3c-.1 0 0 0 0 0z"/><path d="m42.2 30.9c.2 0 .5 0 .7.1l-.8 3.9c-.1 0-.4-.1-.6-.1-2.7 0-3.8 2.7-4.2 4.9l-1 5.2h-4l2.6-13.7h3.5l-.2.9c-.2.9-.4 1.4-.6 1.6-.1.1 0 .3.1.3s.3 0 .3-.1c.1-.3.2-.9.8-1.5 1-.9 2.2-1.5 3.4-1.5z"/><path d="m136.6 35c0-.7-.6-1.1-1.4-1.1-1.3 0-2.3.8-2.8 1.8-.4.7-.5.8-.8 1-.1.1-.1.3 0 .3.1.1.2.1.3.1.3-.3.3-.5 1.4-.5 1.6-.1 2.6-.3 3.1-.8.1-.2.2-.4.2-.8zm-5.5 4.2c.4.3.6.8.6 1 .1.3.2.5.3.7.5.7 1.4 1 2.6 1 1.7 0 3.1-.4 4.7-1.3l-.6 3.3c-1.9 1-4.2 1.1-5 1.1-3.7 0-5.9-2.1-5.9-5.7 0-2.1.8-4.2 2.1-5.8 1.5-1.7 3.5-2.7 5.8-2.7 2.8 0 4.7 1.6 4.7 4.1 0 1.1-.4 2.1-1.1 2.8-1.2 1.2-3.4 1.8-6.7 1.8-.8 0-1-.4-1.1-.7-.1-.1-.3-.1-.3 0-.2.1-.2.3-.1.4z"/><path d="m125.7 31c1 0 2.1.2 2.8.5l-.6 3.2c-.6-.3-1.3-.5-2.2-.5-2.9 0-4.6 2.5-4.6 4.9 0 2 1.4 2.8 2.6 2.8 1.1 0 2.1-.2 3.3-.9l-.6 3.3c-.9.4-2.4.7-3.8.7-3.5 0-5.7-2.2-5.7-5.5 0-4.8 3.8-8.5 8.8-8.5z"/><path d="m109.5 34.8c-1.1 1.1-1.9 3.1-1.9 4.7 0 1.4.5 2.3 1.4 2.3 1.5 0 2.7-1.5 3.2-3.8.1-.5.2-1 .3-1.5s.1-.9.1-1.1c0-1-.5-1.5-1.4-1.5-.6.1-1.2.4-1.7.9zm1.5 10 .1-.6c.1-.5.6-1.3.7-1.5.1-.1 0-.3-.1-.3-.1-.1-.3 0-.3.1v.1c-.1.3-.2 1-.8 1.5-.8.7-1.9 1.2-3.1 1.2-2.7 0-3.9-2.4-3.9-4.7 0-2.7 1.1-5.4 2.8-7.1 1.5-1.5 3.4-2.3 5.5-2.3 1.6 0 2.8.5 3.6 1.4 1.1 1.4 1 3.4.7 4.9l-1.4 7.6z"/></g></svg>